<?xml version="1.0" standalone="no"?>
<!DOCTYPE svg PUBLIC "-//W3C//DTD SVG 20010904//EN"
 "http://www.w3.org/TR/2001/REC-SVG-20010904/DTD/svg10.dtd">
<svg version="1.0" xmlns="http://www.w3.org/2000/svg"
 width="1136.000000pt" height="1136.000000pt" viewBox="0 0 1136.000000 1136.000000"
 preserveAspectRatio="xMidYMid meet">
<metadata>
Created by potrace 1.14, written by Peter Selinger 2001-2017
</metadata>
<g transform="translate(0.000000,1136.000000) scale(0.100000,-0.100000)"
fill="#000000" stroke="none">
<path d="M9357 10564 c-1 -1 -42 -5 -92 -9 -49 -4 -92 -8 -95 -10 -3 -2 -30
-6 -60 -10 -30 -3 -75 -11 -100 -17 -25 -5 -54 -11 -65 -14 -11 -2 -32 -6 -47
-10 -15 -3 -31 -6 -35 -6 -5 0 -15 -4 -24 -9 -9 -4 -31 -11 -50 -14 -18 -3
-36 -11 -40 -16 -3 -6 -8 -9 -10 -8 -5 4 -102 -22 -114 -31 -5 -4 -28 -13 -50
-20 -21 -7 -64 -24 -95 -38 -30 -14 -57 -26 -60 -26 -10 -2 -205 -99 -210
-105 -3 -4 -24 -15 -47 -26 -24 -11 -43 -23 -43 -27 0 -5 -6 -8 -14 -8 -8 0
-21 -6 -28 -13 -7 -6 -42 -30 -78 -51 -36 -22 -66 -43 -68 -48 -2 -4 -8 -8
-13 -8 -6 0 -15 -4 -22 -10 -57 -46 -76 -60 -85 -60 -6 0 -12 -3 -14 -7 -1 -5
-28 -27 -58 -50 -30 -23 -68 -54 -85 -68 -141 -119 -152 -129 -265 -240 -138
-134 -207 -212 -368 -411 -9 -12 -26 -34 -37 -50 -11 -15 -28 -36 -37 -46 -10
-10 -15 -18 -10 -18 4 0 3 -4 -3 -8 -5 -4 -14 -14 -20 -23 -5 -8 -49 -74 -97
-147 -49 -72 -88 -133 -88 -135 0 -2 -22 -42 -50 -88 -27 -46 -50 -90 -50 -96
0 -7 -4 -13 -8 -13 -5 0 -17 -20 -28 -45 -10 -25 -21 -45 -24 -45 -3 0 -6 -9
-7 -20 -1 -11 -9 -27 -17 -36 -9 -8 -16 -19 -16 -24 0 -5 -14 -39 -31 -77 -17
-37 -37 -84 -45 -103 -9 -19 -19 -44 -24 -55 -9 -23 -64 -167 -66 -175 -8 -36
-19 -67 -27 -77 -5 -7 -7 -13 -4 -13 3 0 -1 -16 -9 -35 -8 -19 -12 -35 -9 -35
3 0 0 -10 -7 -22 -6 -13 -12 -30 -13 -38 -1 -8 -16 -71 -34 -140 -17 -68 -34
-138 -36 -155 -3 -16 -8 -41 -10 -55 -13 -62 -24 -132 -30 -180 -2 -19 -6 -59
-10 -87 -3 -29 -8 -94 -10 -144 -2 -50 -6 -93 -9 -96 -2 -3 -1 -16 4 -29 5
-13 6 -24 2 -24 -4 0 -7 -29 -7 -65 0 -36 2 -65 5 -65 3 0 5 -28 6 -63 1 -95
12 -202 35 -327 6 -30 12 -68 14 -83 8 -53 88 -325 104 -352 3 -5 6 -12 7 -15
4 -23 106 -234 122 -252 8 -10 12 -18 8 -18 -4 0 7 -19 26 -42 18 -23 32 -45
30 -48 -2 -3 4 -14 13 -25 8 -11 41 -54 72 -95 31 -41 64 -81 73 -89 16 -13
12 -21 -45 -100 -35 -47 -72 -102 -84 -121 -53 -90 -134 -245 -149 -283 -9
-23 -21 -45 -27 -49 -5 -4 -7 -8 -2 -8 4 0 1 -13 -8 -30 -9 -16 -13 -30 -9
-30 4 0 2 -6 -4 -12 -9 -12 -56 -147 -67 -193 -3 -11 -12 -47 -20 -80 -9 -33
-18 -71 -21 -85 -2 -14 -7 -36 -11 -50 -3 -14 -7 -32 -8 -40 -12 -92 -16 -117
-20 -130 -24 -82 -24 -556 0 -700 3 -14 7 -41 10 -62 3 -20 10 -58 15 -85 6
-26 12 -57 14 -68 3 -11 7 -31 10 -45 3 -14 8 -34 10 -45 2 -11 9 -33 16 -50
6 -16 11 -32 11 -35 -1 -11 22 -88 41 -140 11 -30 21 -59 22 -65 1 -5 8 -20
14 -32 7 -13 10 -23 7 -23 -3 0 0 -12 9 -27 18 -35 42 -91 51 -120 3 -13 11
-23 16 -23 5 0 9 -6 9 -12 0 -13 46 -106 85 -173 13 -22 29 -50 34 -63 6 -12
15 -28 21 -35 6 -6 38 -53 71 -104 34 -51 71 -104 84 -117 13 -14 25 -29 26
-34 11 -28 218 -247 325 -342 43 -40 178 -146 214 -170 12 -8 28 -21 36 -27 7
-7 17 -13 21 -13 5 0 18 -8 29 -17 11 -10 33 -26 49 -36 86 -51 140 -81 144
-79 2 2 7 0 10 -5 11 -17 225 -113 242 -109 3 0 12 -4 20 -10 13 -11 155 -60
195 -68 10 -2 53 -13 94 -24 70 -19 113 -27 185 -37 17 -2 46 -7 65 -11 40 -7
434 -8 495 -1 22 3 58 8 80 11 132 21 110 17 239 51 54 14 128 37 165 51 36
14 71 27 76 28 6 2 33 13 60 26 28 13 52 24 55 24 40 8 365 210 410 256 3 3
25 21 50 41 87 70 261 251 309 322 8 12 18 24 21 27 15 13 80 109 80 118 0 6
4 12 8 14 10 4 107 163 118 193 4 11 13 27 20 35 7 8 13 18 13 22 1 7 24 59
67 156 34 74 120 354 128 417 2 11 6 36 10 55 8 39 15 79 20 125 2 17 5 30 6
30 2 0 8 65 14 160 6 84 6 330 1 400 -3 45 -9 95 -20 165 -2 14 -7 43 -10 65
-3 22 -8 51 -11 65 -3 14 -7 34 -9 45 -15 95 -111 400 -161 513 -43 96 -153
314 -187 368 -67 107 -122 189 -132 200 -5 6 -21 26 -35 44 -14 19 -33 42 -42
52 -10 10 -16 18 -14 18 8 0 -68 83 -171 187 -94 95 -121 133 -92 133 13 0
291 278 364 364 28 32 58 68 68 80 41 48 54 63 87 106 19 25 38 50 43 55 4 6
19 24 32 40 14 17 25 33 25 37 0 4 6 13 13 20 7 7 23 30 36 51 12 20 27 37 32
37 5 0 9 5 9 10 0 6 25 49 55 95 30 47 55 90 55 95 0 6 5 10 10 10 6 0 10 6
10 13 0 7 11 28 24 48 29 42 138 255 136 265 -1 4 2 10 7 13 7 5 37 68 79 166
7 17 19 46 27 65 9 19 25 64 38 100 12 36 25 70 29 75 4 6 11 24 15 40 12 46
12 45 39 129 14 43 26 86 26 96 0 9 3 20 8 24 4 4 7 11 7 14 1 8 17 82 21 97
3 9 5 21 19 90 33 164 45 239 61 390 9 83 12 473 3 545 -19 169 -24 201 -40
276 -7 32 -14 66 -15 74 -8 40 -32 135 -34 135 -1 0 -3 7 -5 15 -6 29 -59 185
-64 190 -3 3 -7 12 -9 20 -5 26 -134 285 -146 292 -6 4 -7 8 -3 8 4 0 3 6 -3
13 -5 6 -36 49 -68 93 -31 45 -73 101 -92 125 -46 56 -177 187 -219 219 -18
14 -43 34 -55 45 -79 74 -418 255 -476 255 -11 0 -20 4 -20 9 0 5 -12 11 -27
14 -16 3 -72 17 -126 31 -54 14 -112 27 -130 30 -18 2 -32 5 -32 6 0 2 -29 5
-140 15 -136 12 -179 12 -192 2 -8 -5 -13 -6 -13 0 0 7 -66 13 -73 7z"/>
<path d="M1847 10184 c-1 -2 -30 -6 -62 -9 -108 -10 -174 -20 -263 -41 -35 -8
-67 -12 -72 -9 -5 3 -10 1 -12 -3 -2 -7 -78 -33 -138 -47 -8 -2 -16 -4 -17 -5
-2 -2 -6 -3 -10 -5 -5 -1 -17 -5 -28 -10 -130 -52 -171 -69 -175 -74 -3 -4
-18 -12 -35 -19 -16 -8 -48 -24 -70 -37 -22 -12 -44 -23 -49 -23 -5 0 -12 -4
-15 -9 -3 -4 -35 -28 -71 -53 -36 -24 -71 -50 -78 -57 -7 -7 -16 -13 -20 -13
-4 0 -36 -28 -72 -61 -36 -33 -70 -63 -75 -67 -10 -6 -124 -135 -182 -205 -12
-14 -29 -40 -38 -56 -8 -17 -20 -31 -25 -31 -6 0 -10 -5 -10 -10 0 -6 -15 -34
-33 -63 -40 -62 -129 -246 -147 -302 -7 -22 -17 -46 -23 -52 -5 -7 -6 -13 -3
-13 4 0 2 -9 -4 -21 -7 -11 -14 -32 -16 -45 -3 -14 -11 -44 -19 -67 -14 -43
-22 -75 -31 -137 -3 -19 -8 -42 -11 -50 -3 -8 -7 -31 -9 -50 -2 -19 -6 -44 -9
-56 -28 -120 -23 -551 9 -739 2 -11 7 -38 11 -60 3 -22 15 -80 26 -130 11 -49
21 -99 23 -110 3 -11 13 -48 24 -82 11 -35 18 -63 16 -63 -3 0 1 -10 8 -22 6
-13 13 -30 14 -38 3 -29 59 -175 69 -182 5 -4 7 -8 3 -8 -6 0 52 -141 88 -214
8 -16 14 -35 14 -43 0 -7 5 -13 10 -13 6 0 10 -6 10 -13 0 -8 11 -34 25 -58
13 -24 31 -57 38 -74 8 -16 37 -70 66 -119 28 -49 51 -91 51 -93 0 -3 6 -10
13 -18 6 -7 26 -36 42 -65 17 -28 46 -73 65 -100 19 -26 42 -58 50 -70 8 -12
21 -28 28 -36 6 -7 12 -15 12 -19 0 -6 1 -8 50 -65 16 -19 32 -43 36 -52 3
-10 9 -18 13 -18 5 0 25 -21 45 -47 90 -116 285 -319 445 -463 111 -100 134
-120 201 -170 18 -14 38 -30 44 -35 6 -6 27 -22 46 -35 38 -27 53 -38 75 -58
8 -7 15 -10 15 -6 0 4 8 -2 18 -12 9 -11 29 -25 45 -33 15 -8 27 -18 27 -23 0
-4 5 -8 11 -8 15 0 99 -59 99 -70 0 -5 -8 -17 -19 -27 -16 -15 -111 -143 -148
-199 -7 -11 -23 -35 -37 -55 -57 -87 -216 -382 -216 -402 0 -2 -10 -26 -22
-53 -12 -27 -23 -53 -25 -59 -14 -52 -60 -172 -68 -177 -5 -4 -7 -8 -3 -8 4 0
1 -18 -7 -40 -8 -22 -12 -40 -10 -40 2 0 -2 -18 -10 -40 -8 -22 -12 -40 -10
-40 2 0 -2 -18 -10 -40 -8 -22 -14 -43 -14 -45 1 -5 -4 -34 -16 -95 -3 -14 -8
-45 -11 -70 -3 -25 -7 -56 -10 -70 -24 -148 -24 -609 1 -700 2 -8 7 -31 10
-50 17 -106 39 -206 72 -320 13 -47 26 -94 29 -104 2 -11 8 -24 14 -30 5 -5
10 -18 10 -28 0 -10 4 -26 9 -36 5 -9 16 -33 24 -52 49 -117 72 -167 85 -182
8 -10 12 -18 8 -18 -4 0 1 -12 11 -27 10 -16 29 -50 43 -76 14 -27 33 -57 43
-68 10 -10 15 -19 11 -19 -3 0 5 -15 20 -34 14 -19 26 -39 26 -44 0 -6 4 -12
8 -14 4 -2 32 -36 61 -75 30 -40 58 -73 62 -73 5 0 9 -6 9 -13 0 -7 8 -20 18
-28 9 -9 49 -49 88 -90 92 -95 144 -143 224 -204 35 -28 73 -57 82 -66 10 -9
31 -22 46 -30 15 -8 36 -22 46 -31 11 -10 24 -18 29 -18 5 0 21 -9 36 -19 40
-29 227 -124 286 -145 28 -10 54 -23 60 -27 5 -5 19 -9 30 -9 12 0 25 -3 29
-7 4 -5 11 -8 14 -9 4 0 34 -9 67 -19 33 -10 65 -20 70 -21 6 -1 28 -7 50 -12
37 -10 54 -14 130 -27 17 -3 41 -7 55 -10 150 -28 424 -32 598 -10 23 3 63 8
90 11 26 3 97 17 157 31 61 13 115 25 120 27 6 1 16 5 23 9 6 5 12 5 12 1 0
-3 7 -1 15 6 8 7 15 9 15 6 0 -4 9 -2 21 4 11 7 32 14 45 16 47 9 366 153 384
174 3 3 17 11 32 17 54 24 266 170 352 243 196 165 338 318 481 517 25 35 45
67 45 73 0 5 4 10 8 10 5 0 22 23 38 51 16 28 44 77 62 108 29 51 106 205 145
291 9 19 13 38 11 42 -3 4 -1 8 5 8 6 0 13 16 17 35 3 19 10 35 15 35 5 0 8 3
8 8 -1 4 0 9 1 12 1 3 3 12 5 20 2 8 12 40 23 70 10 30 20 57 20 60 0 3 3 12
6 20 4 12 25 94 41 160 12 52 24 110 29 145 8 57 18 117 22 140 9 44 17 217
17 335 -2 261 -22 438 -76 643 -8 31 -13 57 -10 57 3 0 0 7 -7 15 -7 8 -9 15
-5 15 4 0 2 7 -5 15 -7 8 -10 15 -7 15 4 0 -7 37 -24 83 -16 45 -32 90 -34
100 -7 31 -143 317 -156 327 -4 3 -16 23 -27 46 -11 22 -28 46 -36 53 -9 8
-16 18 -16 24 0 11 -101 150 -112 155 -5 2 -8 8 -8 12 0 5 -10 19 -22 32 -13
13 -39 43 -58 66 -19 24 -65 74 -102 111 l-68 66 48 80 c57 95 135 254 147
298 2 4 4 9 5 12 1 3 3 8 5 13 1 4 5 16 9 27 4 11 13 34 19 50 6 17 12 35 13
40 1 6 12 46 24 90 23 88 40 171 45 225 2 19 4 35 5 35 9 0 23 212 23 345 0
109 -10 292 -19 332 -3 13 -7 39 -9 58 -4 38 -49 264 -64 320 -5 19 -13 46
-16 60 -9 34 -45 151 -52 170 -3 8 -8 24 -10 34 -2 11 -7 24 -12 30 -5 6 -12
26 -16 44 -3 17 -11 32 -16 32 -6 0 -8 4 -5 8 3 5 -11 44 -30 88 -20 43 -36
84 -38 89 -1 6 -10 25 -19 43 -10 17 -14 32 -10 32 5 0 3 4 -2 8 -6 4 -35 57
-66 117 -76 148 -93 179 -101 183 -5 2 -8 8 -8 14 0 6 -14 30 -30 55 -17 24
-30 48 -30 54 0 5 -4 9 -10 9 -5 0 -10 7 -10 15 0 8 -4 15 -10 15 -5 0 -10 5
-10 11 0 11 -114 178 -150 219 -12 14 -28 37 -36 53 -8 15 -18 27 -22 27 -4 0
-15 12 -24 28 -9 15 -27 39 -40 53 -13 14 -34 39 -48 56 -103 125 -296 324
-416 428 -38 33 -74 65 -80 70 -29 27 -190 155 -234 185 -19 14 -44 32 -54 42
-11 10 -25 18 -32 18 -7 0 -14 4 -16 9 -4 11 -243 162 -343 216 -38 21 -75 42
-81 46 -6 5 -14 6 -17 2 -4 -3 -7 -1 -7 5 0 7 -4 12 -9 12 -6 0 -52 20 -103
44 -51 24 -118 53 -148 66 -30 12 -64 26 -75 32 -12 5 -27 10 -35 12 -8 1 -32
10 -54 19 -21 9 -47 17 -57 17 -11 0 -19 5 -19 11 0 6 -6 9 -14 6 -8 -3 -17
-3 -20 1 -4 3 -12 7 -19 9 -7 1 -55 14 -107 28 -52 14 -102 28 -110 29 -36 9
-226 44 -240 44 -8 0 -26 3 -40 6 -69 15 -521 32 -533 20z"/>
</g>
</svg>
